<svg width="160" height="110" viewBox="0 0 160 110" fill="none" xmlns="http://www.w3.org/2000/svg">
<path d="M71.623 0.1008C45.6043 2.4265 25.2316 10.7832 12.0051 24.5404C6.43817 30.3349 3.24013 35.6564 1.06862 42.7912C0.121049 45.8659 0.0420846 46.8119 0.00260258 53.2766C-0.0368794 61.0815 0.357941 63.8013 2.2136 69.2411C8.72813 88.0044 27.7979 102.077 54.2114 107.635C63.1343 109.527 68.188 110 79.9142 110C95.1937 110 104.827 108.62 116.672 104.718C129.504 100.5 138.742 94.9421 146.639 86.743C156.43 76.4941 160.536 65.7329 159.944 51.5027C159.51 40.5049 155.72 32.4635 146.678 23.5155C134.597 11.4928 117.185 3.84557 95.3122 0.849754C90.9692 0.258469 75.3738 -0.214554 71.623 0.1008ZM88.8371 3.41196C102.458 4.51569 115.053 7.66917 125.595 12.6753C129.859 14.6857 135.505 17.918 137.518 19.4948L138.466 20.2437L135.031 21.4657C128.911 23.7126 124.371 24.4221 117.62 24.1856C110.75 23.9885 107.867 23.3184 100.84 20.362C92.7459 17.0114 89.5083 16.2624 82.8754 16.2624C76.2029 16.2624 70.9518 17.8392 66.135 21.308C64.7926 22.2541 63.6871 22.6877 61.9894 22.8848C60.7259 23.003 57.5279 23.6731 54.9221 24.3827C50.816 25.447 49.7499 25.5652 46.7888 25.3682C42.2484 25.0922 30.7196 22.1358 24.0471 19.5736L22.8627 19.14L25.6264 17.3662C29.2193 15.001 36.8393 11.3351 41.8141 9.52185C55.5933 4.43685 73.1233 2.18999 88.8371 3.41196ZM91.7588 20.5197C93.8119 21.0321 97.1284 22.1752 99.1025 23.0424C107.236 26.6295 112.566 27.6939 121.133 27.3391C127.372 27.1026 131.873 26.1565 137.834 23.752L141.269 22.3723L142.335 23.1607C145.612 25.4864 151.929 33.6855 153.943 38.258C154.851 40.3078 156.628 46.0235 156.391 46.1812C156.351 46.2206 153.667 46.9302 150.39 47.7185C143.322 49.5318 134.913 52.2517 127.924 55.011C123.581 56.7454 122.752 56.9819 122.16 56.5483C121.765 56.2724 116.593 51.8575 110.631 46.7331C90.3375 29.2706 88.3239 27.8515 83.4281 27.8515C81.1381 27.8515 80.388 28.0486 77.5453 29.4677C75.7686 30.3743 72.9259 32.1876 71.2676 33.5672C66.1745 37.7062 64.1214 38.8887 61.3971 39.2829C59.581 39.5194 58.4755 39.48 57.0541 39.0464C53.6587 38.061 53.6981 37.9033 58.4755 32.7394C66.8062 23.752 71.3861 20.7956 78.9272 19.5342C82.0462 19.0218 87.6527 19.4554 91.7588 20.5197ZM23.8892 22.7665C29.0219 24.6586 36.9183 26.9843 41.2218 27.8515C46.7098 28.9553 50.1053 28.8764 55.4748 27.4968C57.9227 26.8266 60.0153 26.3536 60.0547 26.4325C60.1337 26.5113 58.2386 28.6399 55.8302 31.2415C51.9215 35.4593 51.4872 36.09 51.4872 37.3908C51.4872 40.3078 54.8826 42.1999 60.1732 42.2393C64.3583 42.2393 66.2139 41.4115 71.623 37.1149C73.676 35.4987 76.7951 33.4096 78.5323 32.5424C81.3356 31.1233 81.9278 30.9656 83.8624 31.0839C88.0475 31.4386 89.0345 32.1087 109.21 49.3741C115.843 55.0898 121.686 60.2537 122.12 60.8055C123.108 62.0669 123.226 64.3532 122.318 65.6146C121.449 66.876 119.673 67.6644 117.659 67.6644C115.645 67.6644 115.961 67.9009 107.828 60.6478C102.656 56.0359 101.353 55.2869 100.919 56.5483C100.84 56.8242 103.524 59.8595 106.92 63.2889C112.526 68.9652 113.079 69.6353 113.079 70.8967C113.079 72.6705 111.855 74.2473 109.763 75.1933C106.525 76.6518 106.051 76.4153 99.2999 70.1083C96.8915 67.9009 94.6805 66.0876 94.3251 66.0876C92.9433 66.0876 93.9698 67.822 97.7206 72.0004C99.8921 74.4444 101.866 76.8489 102.064 77.2825C103.011 79.3717 100.484 81.8551 97.4047 81.8551C95.8255 81.8551 95.4701 81.6186 91.4824 77.9132C87.4948 74.2473 86.2313 73.4589 85.6391 74.3261C85.4417 74.6809 86.6261 76.1788 91.0481 81.185C92.6274 82.9588 92.6669 83.0771 91.9167 83.6289C90.2585 84.8509 87.021 84.8115 83.744 83.5107C82.599 83.0771 82.3226 82.7617 82.52 82.2887C82.6779 81.9339 82.8754 80.6331 82.9938 79.4111C83.1517 77.519 82.9938 76.7701 82.1252 74.9962C80.9013 72.5129 78.5718 70.5419 76.4003 70.1872C73.6366 69.7536 73.5971 69.7141 73.5971 67.9403C73.5971 65.7723 72.2547 63.486 70.1227 61.9487C68.5829 60.8844 68.1091 60.7661 65.3848 60.7661C62.4237 60.7661 62.3052 60.7267 61.1602 59.4259C58.7913 56.706 54.093 55.7994 50.9344 57.3761C49.4341 58.1645 49.4341 58.1645 48.5655 57.3761C46.9072 55.7994 45.5648 55.3657 42.959 55.5234C41.2218 55.6417 40.1163 55.9176 39.3267 56.5089L38.1817 57.3367L33.6808 55.0898C28.3507 52.4093 20.8096 49.8471 11.0576 47.4032C7.18833 46.4177 3.91132 45.5111 3.79288 45.4322C3.00324 44.6439 6.95144 35.617 9.91259 31.4386C12.1236 28.2851 18.9145 21.5445 19.8621 21.5445C20.2569 21.5445 22.0336 22.0964 23.8892 22.7665ZM11.4129 50.9114C20.2174 53.0795 28.0743 55.7205 32.5753 58.0462L35.9707 59.7806L35.7733 61.7516C35.4969 64.5503 35.9707 66.3241 37.3526 67.9009C38.9319 69.6747 41.1823 70.8179 43.1564 70.8179C44.4988 70.8179 44.7357 70.9755 45.0911 72.0004C46.236 75.2327 49.9868 77.9132 53.4218 77.9132C55.0011 77.9132 55.3564 78.0709 56.0276 79.0958C57.6463 81.5397 61.4366 83.2742 64.1214 82.8405C65.1479 82.6829 65.7007 82.7223 65.7007 82.9982C65.7007 83.8654 68.346 86.3488 70.2411 87.216C73.3602 88.6745 76.6372 88.3592 79.4009 86.3488L80.6249 85.4028L82.7569 86.3882C86.942 88.2803 91.285 88.0438 93.8908 85.7969C94.9568 84.8509 95.4306 84.6932 96.5361 84.8509C99.5368 85.3633 103.643 83.1953 105.025 80.436C105.617 79.214 105.972 78.9381 106.683 79.0169C107.157 79.0958 108.539 78.8593 109.723 78.5045C112.645 77.6767 115.211 75.2327 115.882 72.71L116.396 70.8967L118.686 70.739C121.449 70.5419 123.858 69.044 125.24 66.6789C125.95 65.4175 126.108 64.6685 125.99 62.9341C125.911 61.7516 125.713 60.4902 125.555 60.1354C125.319 59.5835 125.911 59.2288 128.556 58.2039C134.399 55.957 143.52 53.04 150.35 51.3056L157.023 49.5712L156.786 53.3948C156.391 59.4259 155.009 63.9196 151.85 69.2805C143.717 83.1559 125.476 94.1143 103.011 98.608C94.2462 100.382 91.6798 100.579 79.7168 100.54C69.9647 100.54 67.4379 100.421 62.7395 99.6723C51.6056 97.9379 41.893 94.9815 33.128 90.7243C14.8478 81.8157 4.1877 68.7681 3.0822 53.9073C2.80583 50.2019 2.96375 49.1376 3.79288 49.1376C4.06925 49.1376 7.50419 49.926 11.4129 50.9114ZM46.7888 59.623C47.4205 60.2142 48.0127 61.2785 48.1707 61.9881L48.4076 63.2495L49.9079 61.7516C53.4613 58.2039 58.9493 59.0711 60.2127 63.3677C60.7259 65.0627 61.1208 65.2204 62.1868 64.2744C63.2133 63.3283 66.056 63.1312 67.7932 63.8408C68.5829 64.1955 69.6094 65.0627 70.0437 65.7723C70.8728 67.0731 70.9123 67.5461 70.3596 72.3946C70.2806 73.1041 70.399 73.3407 70.8333 73.2224C72.9259 72.6705 75.5712 72.7494 76.9136 73.3801C81.0592 75.351 81.454 81.4215 77.5848 84.0625C75.8081 85.2451 72.8469 85.3633 70.8333 84.2596C69.3725 83.4712 67.6748 80.7908 67.6748 79.214C67.6748 78.1103 67.28 78.0709 65.6217 79.0958C64.911 79.5294 63.8055 79.8841 63.2133 79.8841C60.4496 79.8841 57.8043 77.6767 57.8043 75.351C57.8043 74.6809 57.6858 74.0108 57.5674 73.8925C57.4489 73.7743 56.5014 74.0108 55.4354 74.4838C53.5797 75.2722 53.4613 75.2722 51.724 74.6021C49.1182 73.6166 47.8153 71.7639 47.6179 68.8075C47.539 67.5461 47.3415 66.4818 47.1836 66.4818C47.0257 66.4818 46.5914 66.7183 46.1571 67.0337C44.6568 68.0191 43.2354 68.098 41.4587 67.349C39.682 66.5606 38.4581 64.708 38.4581 62.8159C38.4581 61.5939 39.9584 59.347 41.2218 58.6769C42.7616 57.8885 45.4464 58.3221 46.7888 59.623Z" fill="#C998EF"/>
</svg>
